<?xml version="1.0" encoding="UTF-8"?>
<svg id="Capa_1" xmlns="http://www.w3.org/2000/svg" viewBox="0 0 455.73 455.73">
  <defs>
    <style>
      .cls-1 {
        fill: #fff;
      }

      .cls-2 {
        fill: #1185fe;
      }
    </style>
  </defs>
  <rect class="cls-2" width="455.73" height="455.73"/>
  <path class="cls-1" d="M124.83,89.27c41.71,31.31,86.56,94.79,103.03,128.86,16.47-34.07,61.33-97.55,103.03-128.86,30.09-22.59,78.85-40.07,78.85,15.55,0,11.11-6.37,93.32-10.1,106.67-12.98,46.4-60.3,58.24-102.39,51.07,73.57,12.52,92.28,54,51.87,95.47-76.76,78.77-110.33-19.76-118.93-45.01-1.58-4.63-2.31-6.79-2.33-4.95-.01-1.84-.75.32-2.33,4.95-8.6,25.25-42.17,123.78-118.93,45.01-40.42-41.47-21.7-82.95,51.87-95.47-42.09,7.16-89.41-4.67-102.39-51.07-3.74-13.35-10.1-95.56-10.1-106.67,0-55.62,48.76-38.14,78.85-15.55h0Z"/>
</svg>