<?xml version="1.0" encoding="UTF-8"?>
<svg id="Layer_1" data-name="Layer 1" xmlns="http://www.w3.org/2000/svg" version="1.1" viewBox="0 0 800 800">
  <defs>
    <style>
      .cls-1 {
        fill: #000;
        stroke-width: 0px;
      }
    </style>
  </defs>
  <path class="cls-1" d="M756,44C726.6,14.7,691.3,0,650,0H150c-41.3,0-76.6,14.7-106,44C14.7,73.4,0,108.7,0,150v500c0,41.3,14.7,76.6,44,106,29.4,29.4,64.7,44,106,44h116.7c7.6,0,13.3-.3,17.2-.8,4.5-.9,8.5-3.3,11.5-6.8,3.8-4,5.7-9.8,5.7-17.4l-.3-35.4c-.2-22.6-.2-40.4-.2-53.7l-12,2.1c-7.6,1.4-17.2,2-28.9,1.8-12.1-.2-24.3-1.4-36.2-3.6-12.7-2.3-24.7-7.7-34.9-15.6-10.7-8.1-18.7-19.3-22.9-32l-5.2-12c-4.4-9.5-9.9-18.4-16.4-26.5-7.4-9.7-15-16.3-22.7-19.8l-3.6-2.6c-2.5-1.8-4.8-3.9-6.8-6.2-1.9-2.2-3.5-4.6-4.7-7.3-1-2.4-.2-4.4,2.6-6,2.8-1.6,7.8-2.4,15.1-2.4l10.4,1.6c6.9,1.4,15.5,5.5,25.7,12.5,10.3,7,19,16.3,25.3,27.1,8,14.2,17.6,25.1,28.9,32.6,11.3,7.4,22.7,11.2,34.1,11.2s21.3-.9,29.7-2.6c8.1-1.7,16-4.3,23.4-7.8,3.1-23.2,11.6-41.2,25.5-53.7-18-1.8-35.8-4.9-53.4-9.4-17.1-4.7-33.6-11.5-49-20.3-16.1-8.8-30.4-20.6-41.9-34.9-11.1-13.9-20.2-32.1-27.3-54.7-7.1-22.6-10.7-48.7-10.7-78.2,0-42,13.7-77.8,41.1-107.3-12.8-31.6-11.6-67,3.6-106.2,10.1-3.2,25-.8,44.8,7,19.8,7.8,34.3,14.5,43.5,20,9.2,5.6,16.6,10.3,22.1,14.1,32.6-9.1,66.2-13.6,100-13.5,34.4,0,67.7,4.5,100,13.5l19.8-12.5c15.2-9.1,31.3-16.8,47.9-22.9,18.4-7,32.4-8.8,42.2-5.7,15.6,39.2,17,74.6,4.1,106.2,27.4,29.5,41.2,65.3,41.2,107.3s-3.6,55.7-10.7,78.4c-7.1,22.7-16.3,41-27.6,54.7-11.3,13.7-25.3,25.2-42.2,34.6-16.8,9.4-33.2,16.1-49,20.3-17.5,4.5-35.4,7.6-53.4,9.4,18,15.6,27.1,40.2,27.1,73.9v124.5c0,5.9.8,10.7,2.6,14.3,1.6,3.5,4.6,6.3,8.3,7.6,3.8,1.4,7.2,2.2,10.2,2.6,3,.4,7.2.5,12.7.5h116.7c41.3,0,76.6-14.7,106-44,29.3-29.3,44-64.7,44-106V150c0-41.3-14.7-76.6-44-106h0Z"/>
  <rect class="cls-1" y="637" width="141" height="163"/>
  <rect class="cls-1" x="659" y="637" width="141" height="163"/>
  <rect class="cls-1" width="141" height="163"/>
  <rect class="cls-1" x="659" width="141" height="163"/>
</svg>