<?xml version="1.0" encoding="UTF-8"?>
<svg xmlns="http://www.w3.org/2000/svg" version="1.1" viewBox="0 0 800 800">
  <defs>
    <style>
      .cls-1 {
        fill: #c536a4;
      }

      .cls-2 {
        fill: #fff;
        stroke: #000;
        stroke-miterlimit: 10;
      }
    </style>
  </defs>
  <!-- Generator: Adobe Illustrator 28.6.0, SVG Export Plug-In . SVG Version: 1.2.0 Build 709)  -->
  <g>
    <g id="Layer_2">
      <rect class="cls-2" x="105" y="95" width="610" height="617"/>
    </g>
    <g id="Layer_1">
      <g id="Layer_1-2" data-name="Layer_1">
        <path class="cls-1" d="M400,320.5c-43.9,0-79.6,35.7-79.6,79.5s35.7,79.6,79.6,79.6,79.6-35.7,79.6-79.6-35.7-79.5-79.6-79.5ZM400,320.5c-43.9,0-79.6,35.7-79.6,79.5s35.7,79.6,79.6,79.6,79.6-35.7,79.6-79.6-35.7-79.5-79.6-79.5ZM532.5,190.7h-265.1c-42.3,0-76.7,34.4-76.7,76.7v265.1c0,42.3,34.4,76.7,76.7,76.7h265.1c42.3,0,76.7-34.4,76.7-76.7v-265.1c0-42.3-34.4-76.7-76.7-76.7ZM400,537.8c-76,0-137.8-61.8-137.8-137.8s61.8-137.8,137.8-137.8,137.8,61.8,137.8,137.8-61.8,137.8-137.8,137.8ZM542.2,290.7c-18,0-32.6-14.6-32.6-32.6s14.6-32.6,32.6-32.6,32.6,14.6,32.6,32.6-14.6,32.6-32.6,32.6ZM400,320.5c-43.9,0-79.6,35.7-79.6,79.5s35.7,79.6,79.6,79.6,79.6-35.7,79.6-79.6-35.7-79.5-79.6-79.5ZM532.5,190.7h-265.1c-42.3,0-76.7,34.4-76.7,76.7v265.1c0,42.3,34.4,76.7,76.7,76.7h265.1c42.3,0,76.7-34.4,76.7-76.7v-265.1c0-42.3-34.4-76.7-76.7-76.7ZM400,537.8c-76,0-137.8-61.8-137.8-137.8s61.8-137.8,137.8-137.8,137.8,61.8,137.8,137.8-61.8,137.8-137.8,137.8ZM542.2,290.7c-18,0-32.6-14.6-32.6-32.6s14.6-32.6,32.6-32.6,32.6,14.6,32.6,32.6-14.6,32.6-32.6,32.6ZM400,320.5c-43.9,0-79.6,35.7-79.6,79.5s35.7,79.6,79.6,79.6,79.6-35.7,79.6-79.6-35.7-79.5-79.6-79.5ZM0,0v800h800V0H0ZM667.5,532.5c0,74.4-60.5,134.9-134.9,134.9h-265.1c-74.4,0-134.9-60.5-134.9-134.9v-265.1c0-74.4,60.5-134.9,134.9-134.9h265.1c74.4,0,134.9,60.5,134.9,134.9v265.1h0ZM532.5,190.7h-265.1c-42.3,0-76.7,34.4-76.7,76.7v265.1c0,42.3,34.4,76.7,76.7,76.7h265.1c42.3,0,76.7-34.4,76.7-76.7v-265.1c0-42.3-34.4-76.7-76.7-76.7ZM400,537.8c-76,0-137.8-61.8-137.8-137.8s61.8-137.8,137.8-137.8,137.8,61.8,137.8,137.8-61.8,137.8-137.8,137.8ZM542.2,290.7c-18,0-32.6-14.6-32.6-32.6s14.6-32.6,32.6-32.6,32.6,14.6,32.6,32.6-14.6,32.6-32.6,32.6ZM400,320.5c-43.9,0-79.6,35.7-79.6,79.5s35.7,79.6,79.6,79.6,79.6-35.7,79.6-79.6-35.7-79.5-79.6-79.5ZM400,320.5c-43.9,0-79.6,35.7-79.6,79.5s35.7,79.6,79.6,79.6,79.6-35.7,79.6-79.6-35.7-79.5-79.6-79.5ZM400,320.5c-43.9,0-79.6,35.7-79.6,79.5s35.7,79.6,79.6,79.6,79.6-35.7,79.6-79.6-35.7-79.5-79.6-79.5ZM532.5,190.7h-265.1c-42.3,0-76.7,34.4-76.7,76.7v265.1c0,42.3,34.4,76.7,76.7,76.7h265.1c42.3,0,76.7-34.4,76.7-76.7v-265.1c0-42.3-34.4-76.7-76.7-76.7ZM400,537.8c-76,0-137.8-61.8-137.8-137.8s61.8-137.8,137.8-137.8,137.8,61.8,137.8,137.8-61.8,137.8-137.8,137.8ZM542.2,290.7c-18,0-32.6-14.6-32.6-32.6s14.6-32.6,32.6-32.6,32.6,14.6,32.6,32.6-14.6,32.6-32.6,32.6ZM400,320.5c-43.9,0-79.6,35.7-79.6,79.5s35.7,79.6,79.6,79.6,79.6-35.7,79.6-79.6-35.7-79.5-79.6-79.5ZM400,320.5c-43.9,0-79.6,35.7-79.6,79.5s35.7,79.6,79.6,79.6,79.6-35.7,79.6-79.6-35.7-79.5-79.6-79.5ZM400,320.5c-43.9,0-79.6,35.7-79.6,79.5s35.7,79.6,79.6,79.6,79.6-35.7,79.6-79.6-35.7-79.5-79.6-79.5ZM532.5,190.7h-265.1c-42.3,0-76.7,34.4-76.7,76.7v265.1c0,42.3,34.4,76.7,76.7,76.7h265.1c42.3,0,76.7-34.4,76.7-76.7v-265.1c0-42.3-34.4-76.7-76.7-76.7ZM400,537.8c-76,0-137.8-61.8-137.8-137.8s61.8-137.8,137.8-137.8,137.8,61.8,137.8,137.8-61.8,137.8-137.8,137.8ZM542.2,290.7c-18,0-32.6-14.6-32.6-32.6s14.6-32.6,32.6-32.6,32.6,14.6,32.6,32.6-14.6,32.6-32.6,32.6ZM400,320.5c-43.9,0-79.6,35.7-79.6,79.5s35.7,79.6,79.6,79.6,79.6-35.7,79.6-79.6-35.7-79.5-79.6-79.5Z"/>
      </g>
    </g>
  </g>
</svg>