<?xml version="1.0" encoding="UTF-8"?>
<svg xmlns="http://www.w3.org/2000/svg" width="455.73" height="455.73" xmlns:xlink="http://www.w3.org/1999/xlink" viewBox="0 0 455.73 455.73">
  <defs>
    <linearGradient id="linear-gradient" x1="225.44" y1="556.34" x2="225.44" y2="-98.88" gradientTransform="translate(0 456) scale(1 -1)" gradientUnits="userSpaceOnUse">
      <stop offset="0" stop-color="#000" stop-opacity="0"/>
      <stop offset="1" stop-color="#000"/>
    </linearGradient>
    <mask id="mask" x="-139.17" y="-100.34" width="899.75" height="655.22" maskUnits="userSpaceOnUse">
      <g id="mask0_34_23">
        <circle id="circle109" cx="225.44" cy="227.27" r="327.61" fill="#ff66ab"/>
        <circle id="circle111" cx="225.44" cy="227.27" r="327.61" fill="url(#linear-gradient)" fill-opacity=".2"/>
      </g>
    </mask>
    <linearGradient id="linear-gradient-2" x1="310.7" y1="491.48" x2="310.7" y2="-32.44" gradientTransform="translate(0 456) scale(1 -1)" gradientUnits="userSpaceOnUse">
      <stop offset="0" stop-color="#f964a7"/>
      <stop offset="1" stop-color="#b6346f"/>
    </linearGradient>
  </defs>
  <g id="Capa_1">
    <rect x="0" y=".01" width="455.73" height="455.73" fill="#1185fe"/>
  </g>
  <g id="Layer_3">
    <g>
      <circle id="circle105" cx="225.44" cy="227.27" r="327.61" fill="#ff66ab"/>
      <circle id="circle107" cx="225.44" cy="227.27" r="327.61" fill="url(#linear-gradient)" fill-opacity=".2"/>
      <g mask="url(#mask)">
        <g id="g116">
          <path id="path114" d="M148.58-35.48L60.78,116.61,22.05,49.54l-133.55,231.31h61.35l-89.03,154.21H103.19l-30.82,53.38h267.1l-67.34-116.64h131.41l-14.84,25.7h267.1l-31.96-55.36h136.74l-133.55-231.31-68.37,118.42-36.41-63.07-25.56,44.27L387.8,21.86l-116.59,201.93-16.14-27.95h27.05L148.58-35.48ZM407.32,371.79l-12.95,22.43h255.75l-30.07-52.08h-126.57l63.29-109.61-34.52-59.79-23.67,40.99,22.78,39.45h-45.55l-29.26,50.68,39.23,67.94h-78.45ZM444.65,307.13l35.44,61.39h-70.88l35.44-61.39ZM442.76,303.85l-37.33,64.66h-135.19l-22.94-39.74.28-.48h83.99l-42-72.74,1.38-2.39h122.56l29.26,50.68ZM444.65,300.58l27.37-47.41h-54.74l27.37,47.41ZM415.39,249.89h58.52l20.88-36.17L387.8,28.41l-114.69,198.65,13.18,22.83h2.76l63.17-109.41,63.17,109.41ZM292.83,249.89h118.78l-59.39-102.86-59.39,102.86ZM285.78,255.56l-1.38-2.39h-30.14l15.07-26.11-18.03-31.23h-106.58l-19.1,33.08,29.98,51.93h-59.96l-25.5,44.17h96.58l39.2-67.9,39.2,67.9h.55l40.11-69.46ZM249.46,325.02h76.43l-38.21-66.19-38.21,66.19ZM243.5,328.78l-.28-.48h-74.62l-51.16,88.61,10.48,18.15h-20.95l-28.93,50.1h255.75l-65.45-113.37h-49.67l24.83-43.01ZM266.45,368.51l-21.05-36.46-21.05,36.46h42.1ZM282.51,249.89l-11.29-19.55-11.29,19.55h22.58ZM477.69,249.89l18.99-32.9,18.99,32.9h-37.99ZM22.05,56.09l36.83,63.8L15.04,195.84h87.7l19.1,33.08-28.09,48.65h-56.75L-5.62,203.74l-42.62,73.83h-57.57L22.05,56.09ZM60.78,123.16l-40.07,69.4h80.14l-40.07-69.4ZM62.67,119.88l41.96,72.68h38.2l55.18-95.58,55.18,95.58h23.27L148.58-28.92,62.67,119.88ZM123.73,225.64l-17.21-29.81h34.42l-17.21,29.81ZM198.01,103.54l51.4,89.02h-102.8l51.4-89.02ZM-46.36,280.85l-87.14,150.93H105.08l8.58-14.87-78.56-136.06H-46.36ZM33.22,277.57H-44.47L-5.62,210.3l38.84,67.28ZM38.89,280.85l26.48,45.87,26.48-45.87h-52.96ZM123.73,232.19l-26.2,45.38h52.4l-26.2-45.38ZM115.56,413.63l-49.27-85.34h98.54l-49.27,85.34ZM115.56,420.19l-6.69,11.59h13.39l-6.69-11.59ZM170.5,325.02l35.42-61.35,35.42,61.35h-70.83ZM558.65,235.8l-59.5,103.06h119.01l-59.51-103.06ZM621.94,338.86l-61.39-106.34,66.48-115.15,127.87,221.48h-132.96Z" fill="url(#linear-gradient-2)" fill-rule="evenodd"/>
        </g>
      </g>
    </g>
  </g>
  <g id="Layer_2">
    <g>
      <path d="M343.64,172.07c5.25,0,8.85,3.9,8.85,9.3v49.92c0,5.4-3.6,9.3-8.85,9.3s-8.85-3.9-8.85-9.3v-49.92c0-5.4,3.45-9.3,8.85-9.3ZM343.64,272.37c-6.45,0-11.54-5.1-11.54-11.54s5.1-11.39,11.54-11.39,11.54,5.1,11.54,11.39-5.1,11.54-11.54,11.54Z" fill="#fff"/>
      <path d="M311.33,196.21c5.4,0,8.85,3.9,8.85,9.15v33.13c0,24.44-15.07,33.88-33.36,33.88s-33.51-9.44-33.51-33.88v-33.13c0-5.25,3.45-9.15,8.85-9.15s8.85,3.9,8.85,9.15v31.93c0,13.34,5.62,18.59,15.82,18.59s15.67-5.25,15.67-18.59v-31.93c0-5.25,3.6-9.15,8.85-9.15Z" fill="#fff"/>
      <path d="M203.15,216.45c0,4.95,5.1,6.75,14.84,9,13.49,3.3,26.39,6.75,26.39,23.39s-11.99,23.54-29.23,23.54c-14.24,0-24.59-4.95-29.38-10.64-3.75-4.5-3.3-8.4.3-11.84,4.5-4.35,8.4-2.55,10.94-.3,4.05,3.75,9,7.65,18.59,7.65,7.2,0,11.69-2.4,11.69-7.2s-4.8-6.45-17.39-9.89c-12.44-3.45-23.54-6.75-23.54-21.59,0-16.64,13.49-23.54,28.48-23.54,8.55,0,18.29,2.25,24.29,8.7,2.55,2.55,4.5,6.15,0,11.09-4.5,4.65-7.8,3.3-10.94.9-2.85-2.1-7.8-5.7-15.29-5.7-5.1,0-9.74,1.65-9.74,6.45Z" fill="#fff"/>
      <path d="M137.7,272.37c-21.62,0-37.12-16.54-37.12-38.8s15.5-38.8,37.12-38.8,37.12,16.39,37.12,38.8-15.5,38.8-37.12,38.8ZM137.7,255.83c12.51,0,20.34-9.63,20.34-22.26s-7.82-22.41-20.34-22.41-20.34,9.78-20.34,22.41,7.82,22.26,20.34,22.26Z" fill="#fff"/>
      <path d="M413.83,227.87c0,102.71-83.26,185.97-185.97,185.97S41.9,330.57,41.9,227.87,125.16,41.9,227.87,41.9s185.97,83.26,185.97,185.97ZM60.49,227.87c0,92.44,74.94,167.37,167.37,167.37s167.37-74.94,167.37-167.37S320.3,60.49,227.87,60.49,60.49,135.43,60.49,227.87Z" fill="#fff"/>
    </g>
  </g>
</svg>